<svg width="24" height="24" viewBox="0 0 24 24" fill="none" xmlns="http://www.w3.org/2000/svg">
<path d="M19.0603 18.6699L16.9203 14.3999L14.7803 18.6699" stroke="#202330" stroke-width="1.5" stroke-linecap="round" stroke-linejoin="round"/>
<path d="M15.1699 17.9099H18.6899" stroke="#202330" stroke-width="1.5" stroke-linecap="round" stroke-linejoin="round"/>
<path d="M16.9198 22.0001C14.1198 22.0001 11.8398 19.73 11.8398 16.92C11.8398 14.12 14.1098 11.8401 16.9198 11.8401C19.7198 11.8401 21.9998 14.11 21.9998 16.92C21.9998 19.73 19.7298 22.0001 16.9198 22.0001Z" stroke="#202330" stroke-width="1.5" stroke-linecap="round" stroke-linejoin="round"/>
<path d="M5.02 2H8.94C11.01 2 12.01 3.00002 11.96 5.02002V8.94C12.01 11.01 11.01 12.01 8.94 11.96H5.02C3 12 2 11 2 8.92999V5.01001C2 3.00001 3 2 5.02 2Z" stroke="#202330" stroke-width="1.5" stroke-linecap="round" stroke-linejoin="round"/>
<path d="M6.56357 9.12415L6.56362 9.12411C6.89647 8.81343 7.06182 8.41036 7.06182 7.92169C7.06182 7.89823 7.08084 7.87922 7.10429 7.87922H7.50952C7.75677 7.87922 7.95721 8.07966 7.95721 8.32691V9.4817C7.95721 9.80937 8.22284 10.075 8.55051 10.075C8.87818 10.075 9.14381 9.80937 9.14381 9.4817V5.36017C9.14381 5.14445 9.31869 4.96958 9.53441 4.96958H9.57078C9.84925 4.96958 10.075 4.74383 10.075 4.46536C10.075 4.18689 9.84925 3.96114 9.57078 3.96114H7.74108C7.4626 3.96114 7.23686 4.18689 7.23686 4.46536V4.5344C7.23686 4.77474 7.43169 4.96958 7.67203 4.96958C7.82953 4.96958 7.95721 5.09726 7.95721 5.25475V5.92189C7.95721 6.44096 7.53642 6.86175 7.01735 6.86175H6.68349C6.66695 6.86175 6.6469 6.85446 6.63012 6.84052C6.61571 6.82856 6.59689 6.79978 6.58074 6.7498C6.56529 6.70201 6.55506 6.64341 6.55133 6.58272C6.54761 6.52206 6.55056 6.4621 6.55983 6.4118C6.5695 6.35935 6.58439 6.32644 6.59753 6.31119C6.61961 6.28558 6.64067 6.25891 6.6607 6.23121C6.83002 6.00516 6.91248 5.72667 6.91248 5.4006C6.91248 4.94834 6.75888 4.5859 6.44723 4.32272C6.14204 4.05398 5.71205 3.925 5.16837 3.925C4.91773 3.925 4.68201 3.95346 4.46156 4.01085C4.25738 4.06401 4.13583 4.25573 4.13583 4.45557C4.13583 4.64004 4.23525 4.79015 4.37281 4.88617C4.50966 4.9817 4.68866 5.02743 4.86142 5.00412C4.94279 4.99314 5.0246 4.98765 5.10688 4.98765C5.32875 4.98765 5.48114 5.03696 5.57766 5.12242C5.67244 5.20634 5.72588 5.33638 5.72588 5.52711C5.72588 5.72421 5.66467 5.86026 5.5522 5.94954C5.43642 6.04145 5.25417 6.09367 4.99268 6.09367C4.80086 6.09367 4.64535 6.24918 4.64535 6.441V6.73847C4.64535 6.96425 4.82839 7.14729 5.05417 7.14729C5.36029 7.14729 5.5762 7.20505 5.71416 7.3085C5.84805 7.4089 5.91914 7.56047 5.91914 7.77711C5.91914 8.05166 5.83909 8.23671 5.69325 8.35051C5.53873 8.47108 5.34494 8.53343 5.10688 8.53343C4.96275 8.53343 4.81625 8.5166 4.66726 8.48272C4.49191 8.44284 4.30837 8.48077 4.16787 8.57377C4.02661 8.66727 3.925 8.8196 3.925 9.00759C3.925 9.21011 4.04851 9.40176 4.25211 9.45911C4.53408 9.53852 4.83375 9.57801 5.15081 9.57801C5.75938 9.57801 6.2345 9.43071 6.56357 9.12415Z" fill="#202330" stroke="#202330" stroke-width="0.15"/>
<path d="M2 15C2 18.87 5.13 22 9 22L7.95 20.25" stroke="#202330" stroke-width="1.5" stroke-linecap="round" stroke-linejoin="round"/>
<path d="M22 9C22 5.13 18.87 2 15 2L16.05 3.75" stroke="#202330" stroke-width="1.5" stroke-linecap="round" stroke-linejoin="round"/>
</svg>
