<svg width="25" height="24" viewBox="0 0 25 24" fill="none" xmlns="http://www.w3.org/2000/svg">
<path d="M12.917 15.75C10.847 15.75 9.16699 14.07 9.16699 12C9.16699 9.93 10.847 8.25 12.917 8.25C14.987 8.25 16.667 9.93 16.667 12C16.667 14.07 14.987 15.75 12.917 15.75ZM12.917 9.75C11.677 9.75 10.667 10.76 10.667 12C10.667 13.24 11.677 14.25 12.917 14.25C14.157 14.25 15.167 13.24 15.167 12C15.167 10.76 14.157 9.75 12.917 9.75Z" fill="#51545E"/>
<path d="M16.127 22.19C15.917 22.19 15.707 22.16 15.497 22.11C14.877 21.94 14.357 21.55 14.027 21L13.907 20.8C13.317 19.78 12.507 19.78 11.917 20.8L11.807 20.99C11.477 21.55 10.957 21.95 10.337 22.11C9.70699 22.28 9.05699 22.19 8.50699 21.86L6.78699 20.87C6.17699 20.52 5.73699 19.95 5.54699 19.26C5.36699 18.57 5.45699 17.86 5.80699 17.25C6.09699 16.74 6.17699 16.28 6.00699 15.99C5.83699 15.7 5.40699 15.53 4.81699 15.53C3.35699 15.53 2.16699 14.34 2.16699 12.88V11.12C2.16699 9.66004 3.35699 8.47004 4.81699 8.47004C5.40699 8.47004 5.83699 8.30004 6.00699 8.01004C6.17699 7.72004 6.10699 7.26004 5.80699 6.75004C5.45699 6.14004 5.36699 5.42004 5.54699 4.74004C5.72699 4.05004 6.16699 3.48004 6.78699 3.13004L8.51699 2.14004C9.64699 1.47004 11.137 1.86004 11.817 3.01004L11.937 3.21004C12.527 4.23004 13.337 4.23004 13.927 3.21004L14.037 3.02004C14.717 1.86004 16.207 1.47004 17.347 2.15004L19.067 3.14004C19.677 3.49004 20.117 4.06004 20.307 4.75004C20.487 5.44004 20.397 6.15004 20.047 6.76004C19.757 7.27004 19.677 7.73004 19.847 8.02004C20.017 8.31004 20.447 8.48004 21.037 8.48004C22.497 8.48004 23.687 9.67004 23.687 11.13V12.89C23.687 14.35 22.497 15.54 21.037 15.54C20.447 15.54 20.017 15.71 19.847 16C19.677 16.29 19.747 16.75 20.047 17.26C20.397 17.87 20.497 18.59 20.307 19.27C20.127 19.96 19.687 20.53 19.067 20.88L17.337 21.87C16.957 22.08 16.547 22.19 16.127 22.19ZM12.917 18.49C13.807 18.49 14.637 19.05 15.207 20.04L15.317 20.23C15.437 20.44 15.637 20.59 15.877 20.65C16.117 20.71 16.357 20.68 16.557 20.56L18.287 19.56C18.547 19.41 18.747 19.16 18.827 18.86C18.907 18.56 18.867 18.25 18.717 17.99C18.147 17.01 18.077 16 18.517 15.23C18.957 14.46 19.867 14.02 21.007 14.02C21.647 14.02 22.157 13.51 22.157 12.87V11.11C22.157 10.48 21.647 9.96004 21.007 9.96004C19.867 9.96004 18.957 9.52004 18.517 8.75004C18.077 7.98004 18.147 6.97004 18.717 5.99004C18.867 5.73004 18.907 5.42004 18.827 5.12004C18.747 4.82004 18.557 4.58004 18.297 4.42004L16.567 3.43004C16.137 3.17004 15.567 3.32004 15.307 3.76004L15.197 3.95004C14.627 4.94004 13.797 5.50004 12.907 5.50004C12.017 5.50004 11.187 4.94004 10.617 3.95004L10.507 3.75004C10.257 3.33004 9.69699 3.18004 9.26699 3.43004L7.53699 4.43004C7.27699 4.58004 7.07699 4.83004 6.99699 5.13004C6.91699 5.43004 6.95699 5.74004 7.10699 6.00004C7.67699 6.98004 7.74699 7.99004 7.30699 8.76004C6.86699 9.53004 5.95699 9.97004 4.81699 9.97004C4.17699 9.97004 3.66699 10.48 3.66699 11.12V12.88C3.66699 13.51 4.17699 14.03 4.81699 14.03C5.95699 14.03 6.86699 14.47 7.30699 15.24C7.74699 16.01 7.67699 17.02 7.10699 18C6.95699 18.26 6.91699 18.57 6.99699 18.87C7.07699 19.17 7.26699 19.41 7.52699 19.57L9.25699 20.56C9.46699 20.69 9.71699 20.72 9.94699 20.66C10.187 20.6 10.387 20.44 10.517 20.23L10.627 20.04C11.197 19.06 12.027 18.49 12.917 18.49Z" fill="#51545E"/>
</svg>
