<svg width="25" height="24" viewBox="0 0 25 24" fill="none" xmlns="http://www.w3.org/2000/svg">
<path d="M22.25 6.25V11.35C22.25 12.62 21.83 13.69 21.08 14.43C20.34 15.18 19.27 15.6 18 15.6V17.41C18 18.09 17.24 18.5 16.68 18.12L15.71 17.48C15.8 17.17 15.84 16.83 15.84 16.47V12.4C15.84 10.36 14.48 9 12.44 9H5.64999C5.50999 9 5.38 9.01002 5.25 9.02002V6.25C5.25 3.7 6.95 2 9.5 2H18C20.55 2 22.25 3.7 22.25 6.25Z" stroke="#51545E" stroke-width="1.5" stroke-miterlimit="10" stroke-linecap="round" stroke-linejoin="round"/>
<path d="M15.84 12.4V16.47C15.84 16.83 15.8 17.17 15.71 17.48C15.34 18.95 14.12 19.87 12.44 19.87H9.72L6.7 21.88C6.25 22.19 5.64999 21.86 5.64999 21.32V19.87C4.62999 19.87 3.78 19.53 3.19 18.94C2.59 18.34 2.25 17.49 2.25 16.47V12.4C2.25 10.5 3.43 9.19002 5.25 9.02002C5.38 9.01002 5.50999 9 5.64999 9H12.44C14.48 9 15.84 10.36 15.84 12.4Z" stroke="#51545E" stroke-width="1.5" stroke-miterlimit="10" stroke-linecap="round" stroke-linejoin="round"/>
</svg>
